<?xml version="1.0" encoding="utf-8"?>
<!-- Generator: Adobe Illustrator 28.3.0, SVG Export Plug-In . SVG Version: 6.00 Build 0)  -->
<svg version="1.1" id="Layer_1" xmlns="http://www.w3.org/2000/svg" xmlns:xlink="http://www.w3.org/1999/xlink" x="0px" y="0px"
	 viewBox="0 0 128 128" style="enable-background:new 0 0 128 128;" xml:space="preserve">
<style type="text/css">
	.st0{fill:#484646;}
	.st1{fill:#F04A2B;}
</style>
<g>
	<path class="st0" d="M73,90.9c-0.5,0.8-0.6,1.6-0.8,2.3c-0.8,2.8-1.5,5.7-2.2,8.5c-0.2,0.7-0.4,0.9-1.1,0.9c-1.3,0-2.6,0.1-3.9,0
		c-0.9-0.1-1.1-0.4-0.9-1.3c0.6-2.3,1.3-4.6,1.9-6.9c1.2-4.5,2.4-8.9,3.5-13.4c0.2-0.8,0.5-1.6,0.8-2.4c0.2-0.6,0.6-0.9,1.3-0.9
		c1.8,0,3.6,0,5.4,0c4.5,0,8.9,0,13.4,0c2.7,0,4.4,2,3.9,4.5c-0.6,2.5-1,5.1-2.1,7.5c-0.9,2-2.5,3.3-4.8,3.4c-1.4,0.1-2.8,0-4.2,0.1
		c-0.2,0-0.4-0.1-0.5,0.1c-0.1,0.2,0.1,0.3,0.2,0.5c1.8,2.4,3.5,4.8,5.3,7.2c0.1,0.1,0.2,0.2,0.3,0.3c0.5,0.8,0.3,1.2-0.6,1.3
		c-0.9,0.1-1.7,0-2.6,0c-0.9,0-1.8,0-2.7,0c-0.7,0-1.1-0.2-1.5-0.8c-2.6-3.5-5.1-7-7.7-10.6C73.2,91.3,73.1,91.1,73,90.9z
		 M81.5,83.6c-2,0-4,0-5.9,0c-0.6,0-0.9,0.2-1.1,0.8c-0.2,0.8-0.4,1.5-0.6,2.3c-0.1,0.5,0,0.7,0.5,0.7c4,0,8,0,11.9,0
		c0.5,0,0.7-0.2,0.8-0.7c0.2-0.8,0.4-1.7,0.7-2.5c0.1-0.4,0-0.6-0.5-0.6C85.4,83.6,83.5,83.6,81.5,83.6z"/>
	<path class="st0" d="M108.5,77.6c3.2,0,6.5,0,9.7,0c1.3,0,1.5,0.1,1.2,1.4c-0.3,1.3-0.7,2.6-1,3.9c-0.1,0.5-0.4,0.6-0.8,0.5
		c-2.1,0-4.2,0-6.3,0c-1,0-1.1,0.1-1.4,1c-1.3,5-2.6,10-3.9,14.9c-0.2,0.8-0.5,1.7-0.7,2.5c-0.1,0.5-0.5,0.6-0.9,0.6
		c-1.2,0-2.5,0-3.7,0c-1,0-1.3-0.4-1-1.4c0.8-2.9,1.5-5.8,2.3-8.7c0.7-2.7,1.5-5.5,2.2-8.2c0.2-0.8,0.2-0.8-0.6-0.8
		c-2,0-4.1,0-6.1,0c-1,0-1.2-0.3-1-1.3c0.3-1.2,0.6-2.4,0.9-3.6c0.2-0.7,0.5-1,1.3-1C101.8,77.6,105.1,77.6,108.5,77.6z"/>
	<path class="st0" d="M52.1,83.6c-3.7,0-7.5,0-11.2,0c-1.3,0-1.5-0.4-1.2-1.6c0.3-1,0.5-2,0.8-3c0.3-1,0.5-1.3,1.6-1.3
		c4.2,0,8.5,0,12.7,0c3.1,0,6.2,0,9.3,0c0.2,0,0.4,0,0.6,0c0.8,0.1,1.1,0.4,0.9,1.2c-0.1,0.6-0.3,1.2-0.5,1.8
		c-0.2,0.6-0.4,1.3-0.5,1.9c-0.1,0.7-0.5,0.9-1.2,0.9c-3.3,0-6.6,0-10,0C53,83.6,52.6,83.6,52.1,83.6z"/>
	<path class="st0" d="M48,96.9c3.6,0,7.2,0,10.8,0c0.2,0,0.5,0,0.7,0c0.9,0,1.1,0.2,0.9,1.1c-0.3,1.4-0.7,2.9-1.1,4.3
		c-0.1,0.4-0.4,0.5-0.7,0.5c-0.5,0-1,0-1.6,0c-6.9,0-13.8,0-20.8,0c-0.4,0-0.8,0-1.2-0.1c-0.7-0.2-0.9-0.3-0.7-1.1
		c0.3-1.3,0.7-2.6,1-4c0.1-0.6,0.6-0.8,1.1-0.8c2.6,0,5.1,0,7.7,0.1C45.5,96.9,46.7,96.9,48,96.9z"/>
	<path class="st0" d="M49.5,93.1c-3.8,0-7.5,0-11.3,0c-1.2,0-1.4-0.2-1.1-1.4c0.3-1.2,0.6-2.4,0.9-3.6c0.1-0.4,0.3-0.8,0.9-0.8
		c7.6,0,15.3,0,22.9,0c0.2,0,0.3,0,0.5,0c0.6,0,0.8,0.4,0.7,0.9c-0.4,1.5-0.7,3-1.1,4.4c-0.1,0.4-0.5,0.4-0.8,0.4
		C57.2,93.1,53.4,93.1,49.5,93.1z"/>
	<path class="st0" d="M12.9,97c0,0.2,0.1,0.4,0.3,0.3c5.6-0.2,14-0.3,18.9-0.3c0.7,0,0.4,0.1,0.2,1.5c-0.2,1.6-0.7,2.5-0.8,3.7
		c-0.1,0.7-0.5,0.7-1,0.7c-2.9,0-5.8,0-8.8,0c-2.2,0-10,0-13.6,0c-1,0-1.7-0.9-1.5-1.8c1.2-5.4,4.6-20.9,5-22.9
		c0.1-0.5,0.4-0.8,1-0.8c8,0,15.9,0,23.9,0c0.7,0,0.5,0.1,0.2,1.5c-0.3,1.2-0.4,2.5-0.8,3.7c-0.2,0.7-0.5,0.7-1,0.7
		c-2.9,0-5.8,0-8.8,0c-2.9,0-5.7,0-8.6,0c-0.7,0-1.1,0.2-1.2,0.9c-0.4,1.8-3,11.7-3,11.7L12.9,97z"/>
</g>
<g>
	<path class="st1" d="M120.3,47.5c1.7-0.2,1.6-9.2,1.6-9.2s0.1-3.7,0-5.5c-0.4-5.1-3.2-7.6-8.3-7.6c-6.1,0-12.3,0-18.4,0
		c-6.1,0-12.3,0-18.4,0c-1.1,0-1.4,0.3-1.5,1.4c-0.4,9-0.6,18-0.8,27c0,0.1,0,0.1,0,0.2c-0.2,5.5-0.4,11-0.5,16.4
		c0,1.1,0.3,1.4,1.4,1.4c6.1-0.1,12.3,0,18.4,0c6.1,0,12.3,0,18.4,0c5.1,0,8.1-2.5,8.8-7.6c0.3-1.8,0.3-3.7,0.4-5.5
		c0.2-0.1,0.7-8.5-1.2-9.2c-0.3-0.2-0.4-0.3-0.5-0.5C119.4,48.3,119.6,47.9,120.3,47.5z M100.5,34.4c3.3,0,6.5,0,9.8,0
		c1,0,2.1,0.1,2.1,1.5c0,2.2-0.1,4.3-0.2,6.5c0,0.4-0.1,0.7-0.4,0.9c-0.1,0-0.1,0-0.1,0c-8.6,0-17.2-0.2-25.7,0.2
		c-1.2,0.1-1.6-0.4-1.5-1.6c0.2-1.9,0.3-3.7,0.4-5.6c0.1-1.3,0.3-1.8,1.2-1.9c0.2,0,0.3,0,0.5,0c4,0,7.9,0,11.9,0
		C99.1,34.4,99.8,34.4,100.5,34.4z M111.6,60.8c-0.1,1.4-1.1,1.5-2.2,1.5c-3.3,0-6.5,0-9.8,0c-0.7,0-1.4,0-2.1,0c-4,0-7.9,0-11.9,0
		c-0.4,0-0.6,0-0.9,0c-0.7-0.2-0.9-0.7-0.9-1.9c0-0.3,0-0.6,0-1c0.1-1.6,0.1-3.3,0.1-4.9c0-0.4,0.1-0.8,0.3-1
		c0.3-0.2,0.6-0.3,1.2-0.3c8.5,0.4,17.1,0.2,25.7,0.2c0.1,0,0.3,0,0.4,0c0.2,0.2,0.3,0.5,0.3,0.9C111.8,56.5,111.7,58.7,111.6,60.8z
		"/>
	<path class="st1" d="M50,25.1c-6.3,0-12.5,0-18.8,0c-6.3,0-12.6,0-18.9,0c-1.2,0-1.7,0.2-1.7,1.6c0.1,2,0,4.1,0,6.1
		c0,1.6,0.2,1.8,1.8,1.8c4,0,7.9,0,11.9,0c1.5,0,1.7,0.2,1.6,1.8c-0.2,3.5-0.3,7-0.4,10.4c-0.3,7.8-0.7,15.6-1.1,23.4
		c-0.1,1,0.2,1.4,1.3,1.3c1.9-0.1,3.7,0,5.6,0c3,0,3,0,3.1-3c0.5-10.8,0.9-21.6,1.3-32.4c0-1.3,0.5-1.7,1.8-1.7
		c4.2,0.1,8.4,0,12.7,0.1c1,0,1.3-0.3,1.2-1.2c-0.1-2.3-0.1-4.5,0-6.8C51.5,25.3,51,25.1,50,25.1z"/>
	<path class="st1" d="M67.4,26.9c0-1.7-0.2-1.8-1.9-1.8c-1.8,0-3.7,0-5.5,0c-1.5,0-1.8,0.3-1.8,1.8c0,5,0,10.1,0,15.1
		c0,9.3,0,18.7,0,28c0,1.5,0.2,1.7,1.7,1.7c1.9,0,3.7,0,5.6,0c1.7,0,1.8-0.1,1.8-1.9c0-7.1,0-14.3,0-21.4c0,0,0,0,0,0
		C67.4,41.3,67.4,34.1,67.4,26.9z"/>
</g>
</svg>
